<mxfile host="65bd71144e">
    <diagram id="cD52tqRjU22jmfu8s6Lm" name="Page-1">
        <mxGraphModel dx="1966" dy="629" grid="1" gridSize="10" guides="1" tooltips="1" connect="1" arrows="1" fold="1" page="1" pageScale="1" pageWidth="850" pageHeight="1100" math="0" shadow="0">
            <root>
                <mxCell id="0"/>
                <mxCell id="1" parent="0"/>
                <mxCell id="166" value="" style="rounded=0;whiteSpace=wrap;html=1;strokeColor=none;sketch=1;fillStyle=cross-hatch;fillColor=#E6E6E6;strokeWidth=1;" parent="1" vertex="1">
                    <mxGeometry width="320" height="160" as="geometry"/>
                </mxCell>
                <mxCell id="167" value="" style="endArrow=none;html=1;dashed=1;" parent="1" edge="1">
                    <mxGeometry width="50" height="50" relative="1" as="geometry">
                        <mxPoint as="sourcePoint"/>
                        <mxPoint x="320" as="targetPoint"/>
                    </mxGeometry>
                </mxCell>
                <mxCell id="169" value="" style="endArrow=none;html=1;dashed=1;" parent="1" edge="1">
                    <mxGeometry width="50" height="50" relative="1" as="geometry">
                        <mxPoint y="159.75" as="sourcePoint"/>
                        <mxPoint x="320" y="160" as="targetPoint"/>
                    </mxGeometry>
                </mxCell>
                <mxCell id="179" value="" style="rounded=0;whiteSpace=wrap;html=1;strokeColor=none;fillColor=#f8cecc;perimeterSpacing=0;" parent="1" vertex="1">
                    <mxGeometry x="40" y="30" width="40" height="100" as="geometry"/>
                </mxCell>
                <mxCell id="168" value="" style="endArrow=none;html=1;dashed=1;" parent="1" edge="1">
                    <mxGeometry width="50" height="50" relative="1" as="geometry">
                        <mxPoint as="sourcePoint"/>
                        <mxPoint y="160" as="targetPoint"/>
                    </mxGeometry>
                </mxCell>
                <mxCell id="193" value="" style="rounded=0;whiteSpace=wrap;html=1;strokeColor=none;fillColor=#d5e8d4;perimeterSpacing=0;" parent="1" vertex="1">
                    <mxGeometry x="140" y="40" width="60" height="80" as="geometry"/>
                </mxCell>
                <mxCell id="194" value="" style="rounded=0;whiteSpace=wrap;html=1;strokeColor=none;fillColor=#dae8fc;perimeterSpacing=0;" parent="1" vertex="1">
                    <mxGeometry x="240" y="50" width="60" height="60" as="geometry"/>
                </mxCell>
                <mxCell id="189" value="" style="endArrow=none;html=1;dashed=1;" parent="1" edge="1">
                    <mxGeometry width="50" height="50" relative="1" as="geometry">
                        <mxPoint x="320" as="sourcePoint"/>
                        <mxPoint x="320" y="160" as="targetPoint"/>
                    </mxGeometry>
                </mxCell>
                <mxCell id="195" value="" style="endArrow=block;dashed=1;html=1;fontFamily=Lucida Console;dashPattern=1 2;endFill=1;endSize=4;" parent="1" edge="1">
                    <mxGeometry width="50" height="50" relative="1" as="geometry">
                        <mxPoint x="80.19" y="80" as="sourcePoint"/>
                        <mxPoint x="120" y="80" as="targetPoint"/>
                    </mxGeometry>
                </mxCell>
                <mxCell id="196" value="" style="endArrow=block;dashed=1;html=1;fontFamily=Lucida Console;dashPattern=1 2;endFill=1;endSize=4;" parent="1" edge="1">
                    <mxGeometry width="50" height="50" relative="1" as="geometry">
                        <mxPoint x="39.69" y="80" as="sourcePoint"/>
                        <mxPoint y="80" as="targetPoint"/>
                    </mxGeometry>
                </mxCell>
                <mxCell id="223" value="" style="endArrow=block;dashed=1;html=1;fontFamily=Lucida Console;dashPattern=1 2;endFill=1;endSize=4;exitX=0;exitY=0.5;exitDx=0;exitDy=0;" edge="1" parent="1" source="193">
                    <mxGeometry width="50" height="50" relative="1" as="geometry">
                        <mxPoint x="90.19000000000005" y="90" as="sourcePoint"/>
                        <mxPoint x="120" y="80" as="targetPoint"/>
                    </mxGeometry>
                </mxCell>
                <mxCell id="224" value="" style="endArrow=block;dashed=1;html=1;fontFamily=Lucida Console;dashPattern=1 2;endFill=1;endSize=4;exitX=1;exitY=0.5;exitDx=0;exitDy=0;" edge="1" parent="1" source="193">
                    <mxGeometry width="50" height="50" relative="1" as="geometry">
                        <mxPoint x="150" y="90" as="sourcePoint"/>
                        <mxPoint x="220" y="80" as="targetPoint"/>
                    </mxGeometry>
                </mxCell>
                <mxCell id="225" value="" style="endArrow=block;dashed=1;html=1;fontFamily=Lucida Console;dashPattern=1 2;endFill=1;endSize=4;exitX=0;exitY=0.5;exitDx=0;exitDy=0;" edge="1" parent="1" source="194">
                    <mxGeometry width="50" height="50" relative="1" as="geometry">
                        <mxPoint x="210" y="90" as="sourcePoint"/>
                        <mxPoint x="220" y="80" as="targetPoint"/>
                    </mxGeometry>
                </mxCell>
                <mxCell id="227" value="" style="rounded=0;whiteSpace=wrap;html=1;strokeColor=none;sketch=1;fillStyle=cross-hatch;fillColor=#E6E6E6;strokeWidth=1;rotation=0;" vertex="1" parent="1">
                    <mxGeometry x="360" width="320" height="160" as="geometry"/>
                </mxCell>
                <mxCell id="228" value="" style="endArrow=none;html=1;dashed=1;" edge="1" parent="1">
                    <mxGeometry width="50" height="50" relative="1" as="geometry">
                        <mxPoint x="359" as="sourcePoint"/>
                        <mxPoint x="680" as="targetPoint"/>
                    </mxGeometry>
                </mxCell>
                <mxCell id="229" value="" style="endArrow=none;html=1;dashed=1;" edge="1" parent="1">
                    <mxGeometry width="50" height="50" relative="1" as="geometry">
                        <mxPoint x="360" y="160" as="sourcePoint"/>
                        <mxPoint x="681" y="160" as="targetPoint"/>
                    </mxGeometry>
                </mxCell>
                <mxCell id="230" value="" style="rounded=0;whiteSpace=wrap;html=1;strokeColor=none;fillColor=#f8cecc;perimeterSpacing=0;rotation=0;" vertex="1" parent="1">
                    <mxGeometry x="400" y="30" width="40" height="100" as="geometry"/>
                </mxCell>
                <mxCell id="231" value="" style="endArrow=none;html=1;dashed=1;" edge="1" parent="1">
                    <mxGeometry width="50" height="50" relative="1" as="geometry">
                        <mxPoint x="359" as="sourcePoint"/>
                        <mxPoint x="360" y="160" as="targetPoint"/>
                    </mxGeometry>
                </mxCell>
                <mxCell id="232" value="" style="rounded=0;whiteSpace=wrap;html=1;strokeColor=none;fillColor=#d5e8d4;perimeterSpacing=0;rotation=0;" vertex="1" parent="1">
                    <mxGeometry x="500" y="40" width="60" height="80" as="geometry"/>
                </mxCell>
                <mxCell id="233" value="" style="rounded=0;whiteSpace=wrap;html=1;strokeColor=none;fillColor=#dae8fc;perimeterSpacing=0;rotation=0;" vertex="1" parent="1">
                    <mxGeometry x="600" y="50" width="60" height="60" as="geometry"/>
                </mxCell>
                <mxCell id="234" value="" style="endArrow=none;html=1;dashed=1;" edge="1" parent="1">
                    <mxGeometry width="50" height="50" relative="1" as="geometry">
                        <mxPoint x="680" as="sourcePoint"/>
                        <mxPoint x="681" y="160" as="targetPoint"/>
                    </mxGeometry>
                </mxCell>
                <mxCell id="235" value="" style="endArrow=block;dashed=1;html=1;fontFamily=Lucida Console;dashPattern=1 2;endFill=1;endSize=4;" edge="1" parent="1">
                    <mxGeometry width="50" height="50" relative="1" as="geometry">
                        <mxPoint x="440" y="80" as="sourcePoint"/>
                        <mxPoint x="480" y="80" as="targetPoint"/>
                    </mxGeometry>
                </mxCell>
                <mxCell id="236" value="" style="endArrow=block;dashed=1;html=1;fontFamily=Lucida Console;dashPattern=1 2;endFill=1;endSize=4;exitX=1;exitY=0.5;exitDx=0;exitDy=0;" edge="1" parent="1" source="233">
                    <mxGeometry width="50" height="50" relative="1" as="geometry">
                        <mxPoint x="400" y="80" as="sourcePoint"/>
                        <mxPoint x="680" y="80" as="targetPoint"/>
                    </mxGeometry>
                </mxCell>
                <mxCell id="237" value="" style="endArrow=block;dashed=1;html=1;fontFamily=Lucida Console;dashPattern=1 2;endFill=1;endSize=4;exitX=0;exitY=0.5;exitDx=0;exitDy=0;" edge="1" parent="1" source="232">
                    <mxGeometry width="50" height="50" relative="1" as="geometry">
                        <mxPoint x="450" y="90" as="sourcePoint"/>
                        <mxPoint x="480" y="80" as="targetPoint"/>
                    </mxGeometry>
                </mxCell>
                <mxCell id="238" value="" style="endArrow=block;dashed=1;html=1;fontFamily=Lucida Console;dashPattern=1 2;endFill=1;endSize=4;exitX=1;exitY=0.5;exitDx=0;exitDy=0;" edge="1" parent="1" source="232">
                    <mxGeometry width="50" height="50" relative="1" as="geometry">
                        <mxPoint x="510" y="90" as="sourcePoint"/>
                        <mxPoint x="580" y="80" as="targetPoint"/>
                    </mxGeometry>
                </mxCell>
                <mxCell id="239" value="" style="endArrow=block;dashed=1;html=1;fontFamily=Lucida Console;dashPattern=1 2;endFill=1;endSize=4;exitX=0;exitY=0.5;exitDx=0;exitDy=0;" edge="1" parent="1" source="233">
                    <mxGeometry width="50" height="50" relative="1" as="geometry">
                        <mxPoint x="570" y="90" as="sourcePoint"/>
                        <mxPoint x="580" y="80" as="targetPoint"/>
                    </mxGeometry>
                </mxCell>
            </root>
        </mxGraphModel>
    </diagram>
</mxfile>